<svg xmlns="http://www.w3.org/2000/svg" viewBox="0 0 797 199.25"><defs><style>.cls-1{fill:#fefefe}</style></defs><g><path class="cls-1" d="M452.3 199.25c-6.12-1.36-12.32-2.41-18.33-4.14-45.22-13-74.88-56.47-71.14-104C366.47 45 402.87 6.87 449 .94a21.53 21.53 0 0 0 3.3-.94h17.93c6.3 1.33 12.72 2.29 18.9 4.06 45.1 12.89 75 56.05 71.55 103.07a99.6 99.6 0 0 1-86.19 91.17 22.43 22.43 0 0 0-3.26.95zm-68.8-99.59c0 43.17 35.14 78.48 78.13 78.53s78.26-35.25 78.37-78.35c0-43.37-35.3-78.84-78.44-78.77s-78.07 35.41-78.06 78.59zM256 0c3.71.73 7.42 1.44 11.13 2.19 47.41 9.61 80.49 52.8 78.61 102.66-1.76 47-39 87.43-86 93.42a31.82 31.82 0 0 0-3.78 1h-18.85c-4.67-1-9.35-1.89-14-3-46.11-11.2-78.18-54.71-75.41-102.37S186.93 7 233.87 1a20.3 20.3 0 0 0 3.24-1zm69 99.75c.05-43.27-34.88-78.54-77.91-78.68s-78.68 35.43-78.61 78.68c.08 43.07 35.37 78.42 78.31 78.43S324.92 143 325 99.75zM0 148.44a51.37 51.37 0 0 1 4.85-3.26c8.71-4.58 11.5-3.66 15.74 5 10.51 21.47 32.67 32.7 55.59 28.18 22.24-4.39 38.63-23.7 40.1-47.23 2.18-34.89-34.37-61.75-66.85-49.06a61.38 61.38 0 0 0-26.1 19.33c-3.91 4.93-11.91 6-16.66 1.87a8.36 8.36 0 0 1-2.37-5.63Q4.08 54.82 4.25 12c0-6.78 3.47-9.89 10.33-9.9h95.12c5.71 0 7.35 1.55 7.74 7.26.11 1.65 0 3.32 0 5-.1 4.61-2.07 6.71-7.08 6.68-26.89-.19-53.78-.09-80.67-.09h-6.33v52.24c1.26-.69 2.39-1.22 3.43-1.9C51.26 55.13 81.32 55 105 71.06a70.25 70.25 0 0 1 29.09 72.76c-5.92 27.58-27.86 48.7-56.13 54l-7.26 1.4h-9a32.05 32.05 0 0 0-3.82-.9 69.46 69.46 0 0 1-38.23-17.2c-9.06-7.88-15-17.9-19.72-28.72zM797 94.64c-1 1.49-2 3.08-3.15 4.46-4.93 5.79-8.72 6-14 .67L746 66.15c-1.39 1.28-2.73 2.44-4 3.68q-14.77 14.81-29.52 29.62c-5.41 5.42-8.44 5.54-13.33.59-5.13-5.2-5.09-7.94.22-13.27l29.86-30c1.14-1.15 2.2-2.37 4-4.33-7.45-7.22-14.73-14.21-21.95-21.27-4-3.95-8-8-11.92-12-5.94-6-3.45-14.88 5-16.74 1.88-.41 4.83 1 6.37 2.51 10.1 9.84 20 19.93 29.86 30 1.62 1.65 3 3.5 4.71 5.45 8.24-8.17 15.88-15.74 23.51-23.32 3.77-3.75 7.5-7.52 11.26-11.28 5-5 7.82-5 12.84.2 1.48 1.53 2.68 3.32 4 5v4c-12.54 12.7-25.09 25.39-37 37.47l37 38.25zM581.42 95.73c0-13.61-.14-27.23 0-40.83.32-26.12 17.28-48 40.8-52.82a51.49 51.49 0 0 1 57.51 29.13c10 22.07 3.63 47.53-15.9 62.43-10.24 7.82-21.73 12-34.79 11-5.81-.46-7.25-2.09-6.92-7.89.07-1.32.23-2.64.41-4 .8-5.73 2.18-6.94 8.05-7.12 16.72-.53 28.58-9.33 33.46-24.82 4.16-13.21-1.57-28-13.83-35.82A31.16 31.16 0 0 0 612 28.27c-7.68 7.18-11.37 16.15-11.36 26.66v85.14c0 3.28.72 7.63-3.55 8.21-4.52.62-9.35-.07-13.85-1.05-1-.22-1.74-4-1.76-6.2-.14-15.1-.07-30.2-.06-45.3z"/></g></svg>