<svg xmlns="http://www.w3.org/2000/svg" viewBox="0 0 357.65 295.28"><defs><style>.cls-1{fill:#fefefe}</style></defs><g><path class="cls-1" d="M40.71 114.85c-3.81-3.94-7.06-7.21-10.22-10.57C6.82 79.09 5.08 45.92 18 16.37c1.85-4.25 3.08-2.22 5-.15 25.27 27.72 54.6 49.69 89.88 63.17a184.75 184.75 0 0 0 53.82 12.09c4 .26 4.71-.67 4.32-4.51-3.39-34.08 9.5-60.34 39.2-77.4 28.89-16.6 66.25-11.08 89.9 12.5 3 3 5.5 3.65 9.52 2.33 12.84-4.21 24.85-10.26 37.27-16.4.27 3.76-1.54 6.4-3.09 9-6.12 10.3-14.61 18.52-23.45 26.43-1.14 1-3.52 1.81-2.77 3.67.88 2.21 3.28 1.1 4.91.82 10.38-1.82 20.19-5.51 29.95-9.36 1.48-.59 2.87-1.71 5.19-1.38-4.59 9.47-10.94 17.27-17.85 24.63-3 3.15-5.82 6.64-9.4 8.91-6.09 3.88-6.95 9.18-7.5 15.85-4.62 56.4-22.51 107.64-60.9 150.34-23 25.54-52 41-85 49.64-53.65 14-106.14 11.79-157.26-10.68-5.62-2.47-11-5.6-16.4-8.47A12 12 0 0 1 0 264.76c37.51 1.05 72.33-6.79 104.37-29.85-32.13-6-55.83-20.79-67.91-52a76.48 76.48 0 0 0 27.92-3.44C33.47 164.13 12.15 142.45 10.86 105c9.14 7.5 18.69 10 29.85 9.85z"/></g></svg>