<svg xmlns="http://www.w3.org/2000/svg" viewBox="0 0 112.14 191.09"><defs><style>.cls-1{fill:#fefefe}</style></defs><g><path class="cls-1" d="M33.53 191.09c0-23.35 0-46.7-.08-70 0-1.57 1.21-3.61-1-4.83-10.67.37-21.34 1.13-32-.39v.28h.36c-1.09-.66-.76-1.75-.76-2.7Q0 97.16 0 80.93c0-1-.23-2 .68-2.79 9.48 0 19-.19 28.44 0 3.39.08 4.43-.7 4.47-4.3.14-12-1.08-23.94.89-35.85C38.12 16.37 54.5 1.48 76.47.25a218.84 218.84 0 0 1 33.37 1.07 6.15 6.15 0 0 1 1.75.78 229.76 229.76 0 0 1-.08 33c-8.31.25-16.65.16-24.93.85-9.17.76-13.46 5.29-13.9 14.49-.4 8.31 0 16.66-.21 25-.07 2.89 1.53 2.7 3.46 2.69 10.17 0 20.33.08 30.5-.07 2.82 0 3.63.53 3.21 3.55-1.57 11.37-2.82 22.78-4.19 34.18-1.29 1.61-3.06.73-4.59.79-9.39.37-18.8-.56-28.17.52q-.07 37-.16 74z"/></g></svg>