<svg xmlns="http://www.w3.org/2000/svg" viewBox="0 0 597.68 581.82"><defs><style>.cls-1{fill:#fefefe}</style></defs><g><path class="cls-1" d="M354.09 430c11.12-2 21.35-3.49 31.4-5.78 29.92-6.8 57.2-18.79 76.21-44.08 16.27-21.65 24.44-46.82 26.24-73.64A259.83 259.83 0 0 0 487 260c-2.26-19.91-11.49-37.31-24.45-52.56-2.7-3.19-3.45-5.77-2.2-10 7-23.7 5-47.09-3.1-70.22-1.38-3.9-3.65-5-7.38-4.92-14.26.19-27.49 4.53-40 10.65-11 5.36-21.4 12-32.25 17.67a13 13 0 0 1-8.35 1.42 292.43 292.43 0 0 0-140.3-.1c-2.9.71-6.93-.29-9.57-1.91-19.41-11.86-39.07-23-61.92-26.89-.7-.12-1.39-.3-2.09-.41-12.07-1.76-13.48-1-16.94 10.82-6.39 21.78-7.37 43.63-.69 65.6.56 1.83.15 4.82-1 6.19-26.41 30.33-31.4 66-26.84 104.34 2.68 22.57 9.26 43.92 21.07 63.26 12.5 20.47 31 34.59 53.34 42.49 16.56 5.87 34.11 8.95 51.23 13.22 2.26.56 4.6.76 8.18 1.33-10.45 11.14-15.63 23.75-18.13 37.64-.24 1.33-2.46 2.7-4 3.31-31.65 12.17-62.65 7.29-82.36-25.28-9.4-15.54-22.29-27-40.67-30.5-4.68-.9-9.87-.33-14.62.62-5.15 1-5.58 4.75-2.38 8.44a34.26 34.26 0 0 0 8 7c15.94 9.56 26 23.93 32.83 40.62 11.13 27.28 32.58 39.64 60.48 41.67 13.52 1 27.23-.81 41.89-1.38v27.1q0 12 .13 24.1c.12 15.44-8.66 21.6-23.56 16.79-21-6.78-40-17.34-58.6-29C76.72 509.79 32 452.3 11.28 377.28c-17.8-64.6-14.87-128.79 11.14-190.86C65.84 82.78 144.49 22.11 254.52 3.85 384.36-17.71 515.43 53 570 172.7c27.88 61.12 35.08 125.12 19.85 190.92-20.05 86.58-69.93 151-147 194.39a383.36 383.36 0 0 1-44.34 21.07c-17 6.88-25.36.69-25.33-17.3 0-21.5-.13-43 .26-64.51.4-24.21-.98-47.78-19.35-67.27z"/><path d="M193.92 480.42L200 486c-2.28 1.55-4.44 4-6.89 4.33-1.6.22-3.62-2.63-5.45-4.1zM156.71 471.79c-3.55 2-5.79 4-6.5 3.55a28.37 28.37 0 0 1-6.45-6.21c-.16-.19 2.85-3.78 3.34-3.55 2.83 1.33 5.34 3.33 9.61 6.21zM169.57 488.43l-6-6.87c1.74-1.14 4-3.6 5.11-3.15 2.6 1.08 4.62 3.52 6.88 5.42zM217 477.65l5.66 5c-2.42 1.74-4.65 4.07-7.36 5-1.12.36-3.25-2.38-4.92-3.71zM140.23 454.39c-2.29 2-4.25 4.13-4.54 3.92a24.93 24.93 0 0 1-5.93-5.71c-.31-.45 2-2.71 3-4.13zM123 443.27c-2.15-2.84-3.85-4.58-4.8-6.66-.27-.61 1.58-2.19 2.46-3.33a53.88 53.88 0 0 1 5.44 5.56c.29.32-1.44 2.16-3.1 4.43z"/></g></svg>